<svg xmlns="http://www.w3.org/2000/svg" xmlns:xlink="http://www.w3.org/1999/xlink" viewBox="0 0 1366 768"><defs><style>.cls-1{isolation:isolate;}.cls-2{fill:#fff;}.cls-3{fill:url(#linear-gradient);}.cls-4{fill:url(#New_Gradient_Swatch_1);}.cls-5{mix-blend-mode:overlay;fill:url(#linear-gradient-2);}.cls-6{fill:url(#New_Gradient_Swatch_1-2);}.cls-7{fill:url(#New_Gradient_Swatch_1-3);}</style><linearGradient id="linear-gradient" x1="958.57" y1="608.17" x2="911.73" y2="454.89" gradientUnits="userSpaceOnUse"><stop offset="0"/><stop offset="1" stop-color="#0071bc"/></linearGradient><linearGradient id="New_Gradient_Swatch_1" x1="1099.8" y1="924.52" x2="849.8" y2="598.52" gradientUnits="userSpaceOnUse"><stop offset="0"/><stop offset="0.16" stop-color="#001726"/><stop offset="0.45" stop-color="#003d66"/><stop offset="0.7" stop-color="#005995"/><stop offset="0.89" stop-color="#006bb1"/><stop offset="1" stop-color="#0071bc"/></linearGradient><linearGradient id="linear-gradient-2" x1="388" y1="581.93" x2="1366" y2="581.93" xlink:href="#New_Gradient_Swatch_1"/><linearGradient id="New_Gradient_Swatch_1-2" x1="0" y1="118.08" x2="623" y2="118.08" xlink:href="#New_Gradient_Swatch_1"/><linearGradient id="New_Gradient_Swatch_1-3" x1="-34.11" y1="-67.62" x2="325.89" y2="188.38" xlink:href="#New_Gradient_Swatch_1"/></defs><g class="cls-1"><g id="Layer_1" data-name="Layer 1"><rect class="cls-2" width="1366" height="768"/><path class="cls-3" d="M524,768s64.29-285.64,319.38-278.2S1233.27,521.44,1366,359.54V768Z"/><path class="cls-4" d="M194,768S342,556.52,660,615.76C774.23,637,888.6,609.13,983.6,543.4c137-94.82,192.74-291.06,382.4-296.4V768Z"/><path class="cls-5" d="M388,768s142-157.08,514-89,464-283.09,464-283.09V768Z"/><path class="cls-6" d="M0,216.32s155.12,67.5,261.61-46.49S420.42,28.16,623,0H0Z"/><path class="cls-7" d="M288,0S274,152.44,0,118.08V0Z"/></g></g></svg>